<?xml version="1.0" encoding="UTF-8" standalone="no"?>
<!-- Created with Inkscape (http://www.inkscape.org/) -->

<svg
   width="31.112959mm"
   height="31.11297mm"
   viewBox="0 0 31.112959 31.11297"
   version="1.1"
   id="svg5"
   inkscape:version="1.1 (c68e22c387, 2021-05-23)"
   sodipodi:docname="logo.svg"
   xmlns:inkscape="http://www.inkscape.org/namespaces/inkscape"
   xmlns:sodipodi="http://sodipodi.sourceforge.net/DTD/sodipodi-0.dtd"
   xmlns="http://www.w3.org/2000/svg"
   xmlns:svg="http://www.w3.org/2000/svg">
  <sodipodi:namedview
     id="namedview7"
     pagecolor="#ffffff"
     bordercolor="#666666"
     borderopacity="1.0"
     inkscape:pageshadow="2"
     inkscape:pageopacity="0.0"
     inkscape:pagecheckerboard="0"
     inkscape:document-units="mm"
     showgrid="false"
     inkscape:zoom="0.79075673"
     inkscape:cx="161.23796"
     inkscape:cy="-385.07418"
     inkscape:window-width="1920"
     inkscape:window-height="1017"
     inkscape:window-x="1358"
     inkscape:window-y="-8"
     inkscape:window-maximized="1"
     inkscape:current-layer="layer1"
     width="100mm"
     fit-margin-top="0"
     fit-margin-left="0"
     fit-margin-right="0"
     fit-margin-bottom="0" />
  <defs
     id="defs2" />
  <g
     inkscape:label="Слой 1"
     inkscape:groupmode="layer"
     id="layer1"
     transform="translate(-82.253681,-136.87027)">
    <path
       id="rect215"
       style="fill:#1ed648;fill-opacity:1;fill-rule:evenodd;stroke-width:0.036956"
       d="m 91.976445,136.87027 c -5.386426,0 -9.722764,4.33634 -9.722764,9.72277 v 11.66736 c 0,5.38643 4.336338,9.72284 9.722764,9.72284 h 11.667365 c 5.38642,0 9.72283,-4.33641 9.72283,-9.72284 v -11.66736 c 0,-5.38643 -4.33641,-9.72277 -9.72283,-9.72277 z m -4.197328,8.97564 c 0.309054,0 0.550869,0.007 0.725551,0.0201 0.174683,0.0135 0.309065,0.037 0.403125,0.0706 0.09406,0.0336 0.1579,0.084 0.191493,0.15115 0.04031,0.0672 0.07728,0.1512 0.110868,0.25198 l 3.17454,10.05767 h 0.01003 l 3.114053,-10.00729 c 0.02688,-0.11422 0.06052,-0.20493 0.100835,-0.27212 0.04031,-0.0739 0.107466,-0.13104 0.201526,-0.17135 0.100778,-0.0403 0.241861,-0.0672 0.423263,-0.0806 0.181401,-0.0135 0.429988,-0.0201 0.745761,-0.0201 0.309054,0 0.547555,0.0101 0.715519,0.0302 0.174682,0.0201 0.292276,0.0705 0.352743,0.15114 0.06719,0.0739 0.08736,0.18141 0.06049,0.3225 -0.02016,0.14109 -0.07059,0.32923 -0.151218,0.56438 l -3.890058,11.56935 c -0.03359,0.11421 -0.07726,0.20832 -0.131007,0.28222 -0.05375,0.0672 -0.141078,0.12094 -0.262013,0.16125 -0.120934,0.0336 -0.285506,0.0537 -0.493781,0.0604 -0.208276,0.0135 -0.480426,0.0202 -0.816354,0.0202 -0.268743,0 -0.50047,-0.003 -0.695308,-0.0101 -0.18812,0 -0.349378,-0.007 -0.48375,-0.0201 -0.13437,-0.0135 -0.245263,-0.0336 -0.332604,-0.0605 -0.08062,-0.0269 -0.151164,-0.0605 -0.211631,-0.10077 -0.05375,-0.0403 -0.09741,-0.0874 -0.131007,-0.14111 -0.02687,-0.0605 -0.05375,-0.1344 -0.08062,-0.22174 l -3.879954,-11.55921 c -0.08062,-0.24187 -0.130989,-0.43339 -0.151144,-0.57448 -0.01344,-0.14109 0.02014,-0.24521 0.100763,-0.31239 0.08734,-0.0739 0.231738,-0.11757 0.433295,-0.13101 0.201557,-0.0201 0.483795,-0.0302 0.846597,-0.0302 z m 12.788743,0.0605 h 3.2753 c 0.79952,0 1.47474,0.0672 2.02566,0.20153 0.55764,0.13437 1.02463,0.33929 1.40087,0.61475 0.38295,0.26875 0.67521,0.61144 0.87677,1.02799 0.20155,0.41655 0.30228,0.90695 0.30228,1.47131 0,0.31577 -0.0403,0.6148 -0.1209,0.89698 -0.0806,0.27546 -0.19821,0.52736 -0.35274,0.75579 -0.15453,0.22844 -0.34598,0.42997 -0.57441,0.60466 -0.22171,0.17468 -0.47707,0.31583 -0.76597,0.42333 0.36952,0.0672 0.70883,0.1847 1.01788,0.35267 0.31577,0.16797 0.58785,0.38636 0.81628,0.6551 0.23515,0.26203 0.41997,0.57107 0.55434,0.92716 0.13437,0.35608 0.20153,0.75584 0.20153,1.19926 0,0.46358 -0.0638,0.88344 -0.1915,1.25969 -0.12765,0.37623 -0.30569,0.70884 -0.53412,0.99773 -0.22172,0.2889 -0.49041,0.53749 -0.80618,0.74577 -0.30906,0.20827 -0.65175,0.37962 -1.02799,0.51399 -0.37623,0.13437 -0.77931,0.2351 -1.2093,0.30229 -0.42327,0.0605 -0.89695,0.0907 -1.421,0.0907 h -3.4668 c -0.22171,0 -0.40984,-0.0638 -0.56437,-0.19149 -0.14781,-0.13438 -0.221664,-0.34939 -0.221664,-0.645 V 146.7428 c 0,-0.29561 0.07385,-0.50724 0.221664,-0.63489 0.15453,-0.13437 0.34266,-0.20153 0.56437,-0.20153 z m 1.81403,1.98531 v 3.38617 h 1.48141 c 0.38296,0 0.68869,-0.0437 0.91712,-0.13101 0.22843,-0.0941 0.41657,-0.21835 0.56437,-0.37288 0.15453,-0.16125 0.26874,-0.34599 0.34264,-0.55427 0.0739,-0.21499 0.11087,-0.44009 0.11087,-0.67524 0,-0.26202 -0.0404,-0.49714 -0.12097,-0.70541 -0.0806,-0.20828 -0.20153,-0.37962 -0.36278,-0.51399 -0.16124,-0.1411 -0.36617,-0.2486 -0.61475,-0.3225 -0.24187,-0.0739 -0.5677,-0.11087 -0.97753,-0.11087 z m 0,5.32109 v 3.70868 h 1.91478 c 0.36952,0 0.67856,-0.037 0.92715,-0.11087 0.25531,-0.0806 0.4737,-0.19483 0.65511,-0.34264 0.18812,-0.15453 0.33251,-0.34266 0.43329,-0.56438 0.1075,-0.22842 0.16125,-0.4871 0.16125,-0.776 0,-0.30234 -0.0504,-0.57103 -0.15114,-0.80618 -0.10078,-0.24186 -0.24857,-0.44347 -0.4434,-0.60472 -0.19484,-0.16124 -0.44343,-0.28554 -0.74577,-0.37288 -0.30233,-0.0873 -0.69539,-0.13101 -1.17913,-0.13101 z" />
  </g>
</svg>
